<?xml version="1.0" encoding="UTF-8"?>
<svg xmlns="http://www.w3.org/2000/svg" viewBox="0 0 612 792">
  <defs>
    <style>
      .cls-1, .cls-2, .cls-3, .cls-4, .cls-5, .cls-6, .cls-7, .cls-8, .cls-9, .cls-10, .cls-11, .cls-12, .cls-13, .cls-14, .cls-15, .cls-16 {
        stroke-width: 0px;
      }

      .cls-1, .cls-17 {
        fill: #867cca;
      }

      .cls-2 {
        fill: #a496db;
      }

      .cls-18 {
        stroke-width: 6.03px;
      }

      .cls-18, .cls-19, .cls-20, .cls-21, .cls-17, .cls-22 {
        stroke-miterlimit: 10;
      }

      .cls-18, .cls-19, .cls-20, .cls-21, .cls-22 {
        fill: none;
        stroke: #fff;
      }

      .cls-3 {
        fill: #66b289;
      }

      .cls-4 {
        fill: #0063cf;
      }

      .cls-5 {
        fill: #e4624a;
      }

      .cls-6 {
        fill: #919ead;
      }

      .cls-19, .cls-22 {
        stroke-width: 6px;
      }

      .cls-20 {
        stroke-width: 6.06px;
      }

      .cls-21 {
        stroke-width: 5.97px;
      }

      .cls-21, .cls-22 {
        opacity: .99;
      }

      .cls-7 {
        fill: #409e6c;
      }

      .cls-8 {
        fill: #a1cffe;
      }

      .cls-9 {
        fill: #f37d71;
      }

      .cls-10 {
        fill: #736bbe;
      }

      .cls-17 {
        stroke: #8e81cf;
        stroke-linecap: round;
        stroke-width: 5px;
      }

      .cls-11 {
        fill: #c4ccd6;
      }

      .cls-12 {
        fill: #454f5c;
      }

      .cls-13 {
        fill: #fff;
      }

      .cls-14 {
        fill: #61727f;
      }

      .cls-15 {
        fill: #96d587;
      }

      .cls-16 {
        fill: #f69a81;
      }
    </style>
  </defs>
  <g id="Layer_7" data-name="Layer 7">
    <g>
      <path class="cls-15" d="M532,327.36l49.45,77.2c2.31,3.6,1.26,8.4-2.35,10.71l-139.86,89.59c-3.6,2.31-8.4,1.26-10.71-2.35l-49.45-77.2c-2.31-3.6-1.25-8.39,2.35-10.7l139.86-89.59c3.6-2.31,8.39-1.27,10.7,2.34Z"/>
      <rect class="cls-3" x="375.16" y="383.07" width="181.59" height="19.05" transform="translate(-138.17 313.35) rotate(-32.64)"/>
      <circle class="cls-7" cx="552.41" cy="407.49" r="11.56"/>
      <circle class="cls-3" cx="538.83" cy="416.19" r="10.92"/>
    </g>
  </g>
  <g id="Layer_6" data-name="Layer 6">
    <g>
      <rect class="cls-16" x="313.16" y="286.32" width="235.94" height="140.19" rx="16.51" ry="16.51" transform="translate(-97.98 537.94) rotate(-58.52)"/>
      <rect class="cls-9" x="404.74" y="403.27" width="73.9" height="21.08" rx="7.87" ry="7.87" transform="translate(-141.88 574.37) rotate(-58.52)"/>
      <rect class="cls-9" x="381.08" y="378.21" width="73.9" height="21.08" rx="7.87" ry="7.87" transform="translate(-131.81 542.21) rotate(-58.52)"/>
      <path class="cls-5" d="M482.96,271.42c12.29,7.53,18.85,20.84,18.32,34.29-.24,6.35-2.07,12.72-5.63,18.53-3.94,6.44-9.48,11.31-15.79,14.41-11.42,5.61-25.38,5.42-37.03-1.71-18.1-11.08-23.77-34.73-12.7-52.82,11.08-18.1,34.72-23.78,52.82-12.7Z"/>
      <circle class="cls-13" cx="458.99" cy="302.9" r="15.37"/>
      <path class="cls-13" d="M501.28,305.71c-.24,6.35-2.07,12.72-5.63,18.53-3.94,6.44-9.48,11.31-15.79,14.41-8.23-6.65-10.82-17.89-5.61-26.4s17.16-11.49,27.02-6.54Z"/>
      <rect class="cls-9" x="404.74" y="403.27" width="73.9" height="21.08" rx="7.87" ry="7.87" transform="translate(-141.88 574.37) rotate(-58.52)"/>
    </g>
  </g>
  <g id="Layer_4" data-name="Layer 4">
    <g>
      <path class="cls-11" d="M89.97,227.47c-6.83,5.03-8.58,14.28-3.95,20.73h0s8.74,11.87,8.74,11.87c.21.28.42.56.65.82,4.93,5.73,13.86,6.54,20.44,1.7s8.45-13.62,4.44-20.02l-8.65-11.75c-.17-.28-.36-.56-.56-.83-4.76-6.47-14.2-7.6-21.1-2.52ZM100.69,242.36c-3.34,2.46-7.88,1.99-10.12-1.06s-1.36-7.52,1.99-9.98,7.88-1.99,10.13,1.06,1.36,7.52-1.99,9.99Z"/>
      <path class="cls-11" d="M119.68,241.7c.2.27.39.55.56.83l-1.19-1.61c.22.25.42.51.63.78Z"/>
      <path class="cls-11" d="M95.39,260.89l-.03.02-.62-.85c.21.28.42.56.65.82Z"/>
      <rect class="cls-6" x="90.48" y="224.98" width="210.03" height="290.03" rx="12.91" ry="12.91" transform="translate(-181.35 188.05) rotate(-36.38)"/>
      <polyline class="cls-12" points="66.84 273.12 72.3 287.6 151.59 229.19 140.15 219.12"/>
      <rect class="cls-8" x="102.07" y="236.14" width="187.43" height="268.07" transform="translate(-181.4 188.26) rotate(-36.38)"/>
      <g>
        <path class="cls-2" d="M182.52,224.23l120.88,164.09-72.33,53.28-81.92-11.33-86.65-117.63c-4.7-6.38-3.34-15.36,3.04-20.06l96.92-71.4c6.38-4.7,15.37-3.33,20.06,3.04Z"/>
        <path class="cls-10" d="M203.35,403.98l27.72,37.62-81.92-11.33,38.85-28.62c4.89-3.6,11.76-2.56,15.36,2.32Z"/>
      </g>
      <circle class="cls-1" cx="112.63" cy="313.81" r="21.97"/>
      <line class="cls-17" x1="119.42" y1="360.07" x2="207.96" y2="294.85"/>
      <line class="cls-17" x1="130.87" y1="375.61" x2="181.02" y2="338.67"/>
      <polyline class="cls-14" points="71.29 269.84 91.38 288.48 147.92 247.12 135.7 222.39"/>
    </g>
  </g>
  <g id="Layer_2" data-name="Layer 2">
    <g>
      <path class="cls-8" d="M251.92,241.86h149.46c12.12,0,21.97,9.84,21.97,21.97v195.05c0,12.12-9.84,21.97-21.97,21.97h-149.46v-238.98h0Z" transform="translate(-96.23 124.01) rotate(-18.26)"/>
      <line class="cls-19" x1="302.44" y1="373.84" x2="386.58" y2="346.21"/>
      <line class="cls-19" x1="313.03" y1="393.35" x2="388.76" y2="368.48"/>
      <line class="cls-19" x1="299.42" y1="353.89" x2="375.15" y2="329.02"/>
      <rect class="cls-4" x="255.72" y="265.5" width="20.57" height="238.98" transform="translate(-107.25 102.75) rotate(-18.26)"/>
      <ellipse class="cls-20" cx="344.83" cy="361.26" rx="44.28" ry="45.43" transform="translate(-95.84 126.26) rotate(-18.26)"/>
      <line class="cls-18" x1="330.95" y1="317.99" x2="358.85" y2="404.47"/>
      <path class="cls-21" d="M367.23,352.56c8.08,24.5,4.34,47.71-8.38,51.91"/>
      <path class="cls-21" d="M322.29,369.99c-8.08-24.5-4.34-47.71,8.38-51.91"/>
      <path class="cls-22" d="M359.06,404.4c-12.71,4.17-29.17-11.24-36.8-34.47"/>
      <path class="cls-22" d="M330.42,318.17c12.71-4.17,29.17,11.24,36.8,34.47"/>
    </g>
  </g>
</svg>